HIERARCHY
ROOT Torso
{
	OFFSET 0.000000 0.000000 0.000000
	CHANNELS 6 Xposition Yposition Zposition Zrotation Yrotation Xrotation 
	JOINT LHip
	{
		OFFSET 0.000000 0.000000 0.000000
		CHANNELS 3 Zrotation Yrotation Xrotation
		JOINT LThigh
		{
			OFFSET -0.010000 0.055000 -0.055000
			CHANNELS 3 Zrotation Yrotation Xrotation
			JOINT LLeg
			{
				OFFSET 0.015000 0.000000 -0.160000
				CHANNELS 3 Zrotation Yrotation Xrotation
				JOINT LFoot
				{
					OFFSET -0.010000 0.000000 -0.160000
					CHANNELS 3 Zrotation Yrotation Xrotation
					JOINT LToes
					{
						OFFSET 0.090000 0.000000 0.000000
						CHANNELS 3 Zrotation Yrotation Xrotation
						End Site
						{
							OFFSET 0.000000 0.000000 0.000000
						}
					}
				}
			}
		}
	}
	JOINT RHip
	{
		OFFSET 0.000000 0.000000 0.000000
		CHANNELS 3 Zrotation Yrotation Xrotation
		JOINT RThigh
		{
			OFFSET -0.010000 -0.055000 -0.055000
			CHANNELS 3 Zrotation Yrotation Xrotation
			JOINT RLeg
			{
				OFFSET 0.015000 0.000000 -0.160000
				CHANNELS 3 Zrotation Yrotation Xrotation
				JOINT RFoot
				{
					OFFSET -0.010000 0.000000 -0.160000
					CHANNELS 3 Zrotation Yrotation Xrotation
					JOINT RToes
					{
						OFFSET 0.090000 0.000000 0.000000
						CHANNELS 3 Zrotation Yrotation Xrotation
						End Site
						{
							OFFSET 0.000000 0.000000 0.000000
						}
					}
				}
			}
		}
	}
	JOINT Neck
	{
		OFFSET 0.000000 0.000000 0.135000
		CHANNELS 3 Zrotation Yrotation Xrotation
		JOINT Head
		{
			OFFSET 0.000000 0.000000 0.075000
			CHANNELS 3 Zrotation Yrotation Xrotation
			End Site
			{
				OFFSET 0.000000 0.000000 0.000000
			}
		}
	}
	JOINT LUpperarm
	{
		OFFSET 0.000000 0.098000 0.150000
		CHANNELS 3 Zrotation Yrotation Xrotation
		JOINT LLowerarm
		{
			OFFSET 0.090000 0.000000 0.009000
			CHANNELS 3 Zrotation Yrotation Xrotation
			JOINT LHand
			{
				OFFSET 0.105000 0.000000 0.000000
				CHANNELS 3 Zrotation Yrotation Xrotation
				End Site
				{
					OFFSET 0.000000 0.000000 0.000000
				}
			}
		}
	}
	JOINT RUpperarm
	{
		OFFSET 0.000000 -0.098000 0.150000
		CHANNELS 3 Zrotation Yrotation Xrotation
		JOINT RLowerarm
		{
			OFFSET 0.090000 0.000000 0.009000
			CHANNELS 3 Zrotation Yrotation Xrotation
			JOINT RHand
			{
				OFFSET 0.105000 0.000000 0.000000
				CHANNELS 3 Zrotation Yrotation Xrotation
				End Site
				{
					OFFSET 0.000000 0.000000 0.000000
				}
			}
		}
	}
}
MOTION
Frames: 10
Frame Time: 0.040000
0.463136 0.428060 -0.015705 171.491529 -1.475476 86.119429 -16.391810 4.682786 -0.502445 -22.787312 0.419700 -2.985603 8.310801 22.711780 10.037456 1.703453 19.290948 -33.527784 0.004000 0.410900 1.128999 -5.192588 -6.009457 6.458160 18.955212 18.328776 2.401600 -8.735381 8.366546 7.606942 -14.275428 -11.293725 -42.909780 -0.140600 2.416799 -6.658997 -0.527074 15.692740 4.639822 -1.248199 1.127799 2.005699 -107.460639 83.002521 -144.598033 -6.438393 3.455122 -2.454599 0.000000 0.000000 3.419598 -130.233303 76.256237 29.187731 -40.266183 27.009480 -4.235298 0.000000 0.000000 -17.720391 
0.463188 0.428154 -0.015741 171.569420 -1.178082 86.094374 -16.318583 4.694792 -0.436534 -22.569979 0.290754 -2.989531 8.439892 22.730359 10.054922 1.800499 19.178013 -33.700684 0.004700 0.443300 1.218099 -4.982298 -6.180551 6.443096 19.110158 18.377590 2.566553 -8.708751 8.405902 7.456823 -14.195119 -11.344578 -42.912680 -0.148500 2.483499 -6.843997 -0.475591 15.460457 4.612317 -1.232199 1.138799 2.028799 -107.174314 82.907449 -144.645753 -6.293008 3.365898 -2.491299 0.000000 0.000000 3.164998 -129.789609 76.415854 29.489592 -40.073190 27.053318 -4.192998 0.000000 0.000000 -17.749491 
0.463235 0.428168 -0.015741 171.594108 -1.107836 86.103381 -16.340405 4.719578 -0.435047 -22.603355 0.248644 -2.971026 8.430526 22.710471 10.012918 1.817603 19.172513 -33.737884 0.007500 0.559800 1.538399 -4.934451 -6.249023 6.453933 19.142876 18.404607 2.554414 -8.707419 8.415509 7.471158 -14.190280 -11.388998 -42.925980 -0.146500 2.466599 -6.796997 -0.469401 15.431407 4.587916 -1.227899 1.132899 2.027099 -107.388732 82.746405 -144.245768 -6.369099 2.855293 -2.587699 0.000000 0.000000 2.348199 -129.793669 76.416597 29.463533 -40.027734 27.092367 -4.181698 0.000000 0.000000 -17.644491 
0.463169 0.428112 -0.015699 171.493155 -1.399596 86.124182 -16.393375 4.720519 -0.482798 -22.759998 0.342812 -3.010716 8.371045 22.760396 10.059517 1.742133 19.146867 -33.680884 0.006300 0.511500 1.405599 -5.174247 -6.024277 6.428343 18.967649 18.338477 2.478347 -8.743887 8.358305 7.463628 -14.222266 -11.314773 -42.873380 -0.148200 2.480599 -6.835697 -0.473495 15.632986 4.696454 -1.234899 1.136599 2.042699 -107.417655 82.791169 -144.635409 -6.277291 3.128601 -2.543999 0.000000 0.000000 3.335998 -130.082025 76.316060 29.213764 -40.156312 27.008871 -4.198298 0.000000 0.000000 -17.406991 
0.463166 0.428110 -0.015683 171.461829 -1.510739 86.136543 -16.425267 4.732228 -0.506008 -22.835266 0.375319 -3.001378 8.322218 22.750336 10.037998 1.719440 19.138544 -33.654684 0.006300 0.513900 1.411999 -5.237489 -5.957876 6.425291 18.919535 18.318247 2.430281 -8.752101 8.354371 7.509858 -14.247600 -11.299462 -42.864980 -0.152200 2.513999 -6.928497 -0.477868 15.703244 4.728538 -1.238099 1.141299 2.047799 -107.467085 82.722020 -144.734506 -6.203406 3.037137 -2.573799 0.000000 0.000000 3.573098 -130.148149 76.305634 29.109819 -40.160095 26.969000 -4.189398 0.000000 0.000000 -17.196392 
0.463166 0.428104 -0.015666 171.420450 -1.667007 86.151362 -16.469285 4.740543 -0.537580 -22.942648 0.421216 -2.988574 8.254861 22.739934 10.016811 1.682522 19.149192 -33.610284 0.005900 0.495800 1.362399 -5.334400 -5.867635 6.424015 18.850152 18.290070 2.364167 -8.768373 8.343090 7.570428 -14.281652 -11.281532 -42.848380 -0.158200 2.563099 -7.064796 -0.496860 15.805631 4.761019 -1.247299 1.146999 2.049699 -107.557045 82.657525 -144.822947 -6.142626 2.929096 -2.605899 0.000000 0.000000 3.831298 -130.240400 76.295016 28.970674 -40.177158 26.907732 -4.180198 0.000000 0.000000 -16.963592 
0.463174 0.428104 -0.015655 171.379633 -1.841343 86.163918 -16.520740 4.742686 -0.570191 -23.066486 0.468647 -2.977899 8.185409 22.742014 10.009067 1.638200 19.156164 -33.574684 0.005500 0.479400 1.317199 -5.458009 -5.767579 6.422776 18.768201 18.259027 2.302092 -8.795028 8.316949 7.615009 -14.313802 -11.265911 -42.824881 -0.166600 2.629799 -7.249896 -0.524205 15.922390 4.798449 -1.260999 1.152299 2.053599 -107.676051 82.611351 -144.886319 -6.113479 2.820406 -2.633899 0.000000 0.000000 4.066098 -130.325739 76.297370 28.826601 -40.202862 26.822808 -4.168998 0.000000 0.000000 -16.751792 
0.463191 0.428107 -0.015655 171.342149 -2.015484 86.171940 -16.581602 4.747311 -0.602730 -23.206756 0.516199 -2.958602 8.105198 22.741677 9.993746 1.592729 19.152933 -33.546884 0.006000 0.501900 1.379199 -5.582792 -5.676288 6.426238 18.692862 18.234309 2.244141 -8.824376 8.281379 7.666533 -14.351754 -11.258864 -42.822781 -0.175200 2.696099 -7.433896 -0.551242 16.039418 4.843152 -1.276399 1.154999 2.061399 -107.829589 82.581514 -144.878271 -6.133818 2.686891 -2.660699 0.000000 0.000000 4.174898 -130.390716 76.314285 28.686483 -40.235102 26.724600 -4.157398 0.000000 0.000000 -16.586892 
0.463208 0.428110 -0.015658 171.303321 -2.196141 86.176155 -16.651676 4.758646 -0.636744 -23.367216 0.564705 -2.935766 8.016167 22.745439 9.976682 1.542910 19.135416 -33.527984 0.007800 0.571000 1.569199 -5.717136 -5.580828 6.430832 18.616709 18.212797 2.191174 -8.856483 8.231739 7.719160 -14.396149 -11.253416 -42.845480 -0.182300 2.750199 -7.583996 -0.570147 16.163303 4.900916 -1.289599 1.155299 2.073799 -108.014776 82.583582 -144.819441 -6.210516 2.573205 -2.675699 0.000000 0.000000 4.211598 -130.460361 76.330687 28.542874 -40.291120 26.612936 -4.150298 0.000000 0.000000 -16.490492 
0.463219 0.428107 -0.015666 171.262408 -2.360944 86.176861 -16.718230 4.775959 -0.668807 -23.522042 0.610341 -2.914544 7.931499 22.752328 9.960933 1.494349 19.111308 -33.512484 0.010800 0.670100 1.841499 -5.843075 -5.488362 6.434522 18.547522 18.195520 2.148206 -8.885575 8.177479 7.766583 -14.440604 -11.245177 -42.884480 -0.187200 2.786599 -7.685196 -0.575562 16.279900 4.964549 -1.296999 1.155899 2.089899 -108.195799 82.609852 -144.741212 -6.314212 2.497967 -2.678699 0.000000 0.000000 4.213298 -130.535049 76.338085 28.418176 -40.364274 26.501313 -4.149298 0.000000 0.000000 -16.465392 
